<?xml version="1.0"?><svg xmlns="http://www.w3.org/2000/svg"  viewBox="0 0 100 100" width="100px" height="100px">    <path d="M 30.960938 17.921875 C 23.792938 17.921875 17.960938 23.753875 17.960938 30.921875 L 17.960938 69.921875 C 17.960938 77.089875 23.792938 82.921875 30.960938 82.921875 L 69.960938 82.921875 C 77.128938 82.921875 82.960938 77.089875 82.960938 69.921875 L 82.960938 30.921875 C 82.960938 23.753875 77.128938 17.921875 69.960938 17.921875 L 30.960938 17.921875 z M 30.960938 19.921875 L 69.960938 19.921875 C 76.025937 19.921875 80.960938 24.856875 80.960938 30.921875 L 80.960938 69.921875 C 80.960938 75.986875 76.025937 80.921875 69.960938 80.921875 L 30.960938 80.921875 C 24.895937 80.921875 19.960938 75.986875 19.960938 69.921875 L 19.960938 30.921875 C 19.960938 24.856875 24.895937 19.921875 30.960938 19.921875 z M 33.798828 22.921875 C 27.822828 22.921875 22.960937 27.781813 22.960938 33.757812 L 22.960938 67.083984 C 22.960938 73.059984 27.822828 77.921875 33.798828 77.921875 L 67.123047 77.921875 C 73.099047 77.921875 77.960938 73.059984 77.960938 67.083984 L 77.960938 48.421875 C 77.960938 48.145875 77.736938 47.921875 77.460938 47.921875 C 77.184938 47.921875 76.960938 48.145875 76.960938 48.421875 L 76.960938 67.083984 C 76.960938 72.507984 72.547047 76.921875 67.123047 76.921875 L 33.798828 76.921875 C 28.374828 76.921875 23.960937 72.507984 23.960938 67.083984 L 23.960938 33.757812 C 23.960938 28.333813 28.374828 23.921875 33.798828 23.921875 L 67.460938 23.921875 C 67.736937 23.921875 67.960938 23.697875 67.960938 23.421875 C 67.960938 23.145875 67.736938 22.921875 67.460938 22.921875 L 33.798828 22.921875 z M 58.179688 36.921875 C 57.903687 36.921875 57.679687 37.145875 57.679688 37.421875 L 57.679688 44.892578 C 57.355688 44.817578 57.026406 44.752172 56.691406 44.701172 C 56.129406 44.613172 55.478766 44.568359 54.759766 44.568359 C 53.454766 44.568359 52.226375 44.784031 51.109375 45.207031 C 49.983375 45.632031 48.985484 46.262078 48.146484 47.080078 C 47.306484 47.899078 46.645734 48.918469 46.177734 50.105469 C 45.712734 51.287469 45.476562 52.638094 45.476562 54.121094 C 45.476562 55.446094 45.646422 56.682922 45.982422 57.794922 C 46.322422 58.916922 46.817172 59.904422 47.451172 60.732422 C 48.091172 61.569422 48.861234 62.228453 49.740234 62.689453 C 50.624234 63.153453 51.622031 63.388672 52.707031 63.388672 C 54.083031 63.388672 55.282531 63.103062 56.269531 62.539062 C 56.848531 62.208062 57.380328 61.827344 57.861328 61.402344 L 57.861328 62.53125 C 57.860328 62.80825 58.082375 63.033203 58.359375 63.033203 L 61.419922 63.033203 C 61.695922 63.033203 61.919922 62.809203 61.919922 62.533203 L 61.919922 37.421875 C 61.919922 37.145875 61.695922 36.921875 61.419922 36.921875 L 58.179688 36.921875 z M 77.460938 36.921875 C 77.184938 36.921875 76.960938 37.145875 76.960938 37.421875 L 76.960938 39.421875 C 76.960938 39.697875 77.184937 39.921875 77.460938 39.921875 C 77.736937 39.921875 77.960938 39.697875 77.960938 39.421875 L 77.960938 37.421875 C 77.960938 37.145875 77.736938 36.921875 77.460938 36.921875 z M 58.679688 37.921875 L 60.919922 37.921875 L 60.919922 62.033203 L 58.859375 62.033203 L 58.859375 60.185547 C 58.859375 59.976547 58.72825 59.789797 58.53125 59.716797 C 58.33425 59.642797 58.114516 59.699375 57.978516 59.859375 C 57.371516 60.570375 56.629484 61.180875 55.771484 61.671875 C 54.938484 62.147875 53.907031 62.388672 52.707031 62.388672 C 51.785031 62.388672 50.942125 62.192688 50.203125 61.804688 C 49.453125 61.410688 48.794141 60.845 48.244141 60.125 C 47.683141 59.393 47.244453 58.510906 46.939453 57.503906 C 46.631453 56.484906 46.476562 55.347141 46.476562 54.119141 C 46.476562 52.763141 46.688422 51.536656 47.107422 50.472656 C 47.523422 49.416656 48.107703 48.516875 48.845703 47.796875 C 49.585703 47.074875 50.465891 46.518578 51.462891 46.142578 C 52.466891 45.761578 53.575766 45.568359 54.759766 45.568359 C 55.426766 45.568359 56.025109 45.609453 56.537109 45.689453 C 57.054109 45.769453 57.560969 45.879578 58.042969 46.017578 C 58.194969 46.059578 58.355469 46.0325 58.480469 45.9375 C 58.605469 45.8425 58.679687 45.694109 58.679688 45.537109 L 58.679688 37.921875 z M 38.371094 38.052734 C 38.095094 38.052734 37.871094 38.276734 37.871094 38.552734 L 37.871094 62.527344 C 37.871094 62.803344 38.095094 63.027344 38.371094 63.027344 L 41.501953 63.027344 C 41.777953 63.027344 42.001953 62.803344 42.001953 62.527344 L 42.001953 38.552734 C 42.001953 38.276734 41.777953 38.052734 41.501953 38.052734 L 38.371094 38.052734 z M 38.871094 39.052734 L 41.001953 39.052734 L 41.001953 62.027344 L 38.871094 62.027344 L 38.871094 39.052734 z M 77.460938 40.921875 C 77.184938 40.921875 76.960938 41.145875 76.960938 41.421875 L 76.960938 45.421875 C 76.960938 45.697875 77.184937 45.921875 77.460938 45.921875 C 77.736937 45.921875 77.960938 45.697875 77.960938 45.421875 L 77.960938 41.421875 C 77.960938 41.145875 77.736938 40.921875 77.460938 40.921875 z M 55.119141 47.166016 C 53.185141 47.166016 51.617031 47.778328 50.457031 48.986328 C 49.301031 50.188328 48.714844 51.915141 48.714844 54.119141 C 48.714844 56.075141 49.097516 57.675047 49.853516 58.873047 C 50.655516 60.145047 51.917469 60.792969 53.605469 60.792969 C 54.731469 60.792969 55.732125 60.51575 56.578125 59.96875 C 57.385125 59.44575 58.051547 58.874438 58.560547 58.273438 C 58.636547 58.182437 58.679687 58.069172 58.679688 57.951172 L 58.679688 48.126953 C 58.679688 47.923953 58.556188 47.740062 58.367188 47.664062 C 57.923187 47.483063 57.410797 47.352391 56.841797 47.275391 C 56.294797 47.203391 55.714141 47.166016 55.119141 47.166016 z M 55.117188 48.164062 C 55.668188 48.164062 56.204031 48.198625 56.707031 48.265625 C 57.061031 48.313625 57.385734 48.385516 57.677734 48.478516 L 57.677734 57.763672 C 57.247864 58.241313 56.696696 58.70025 56.035156 59.126953 C 55.354156 59.566953 54.535469 59.791016 53.605469 59.791016 C 52.264469 59.791016 51.314219 59.315844 50.699219 58.339844 C 50.046219 57.303844 49.714844 55.884141 49.714844 54.119141 C 49.714844 52.181141 50.206734 50.688687 51.177734 49.679688 C 52.155734 48.660688 53.443188 48.164063 55.117188 48.164062 z"/></svg>